STARTFONT 2.1
COMMENT This font image translated from Metafont
COMMENT Input file was ``bnsl10''
COMMENT DPI was ``180'', usermag ``1000'', blackness ``3''
COMMENT shrink was 1
FONT -*-bengali2-medium-o-*-*-*-180-*-*-*-*-iso10646-1
SIZE 10 180 180
FONTBOUNDINGBOX 48 31 -14 -7
STARTPROPERTIES 5
FONT_ASCENT 24
FONT_DESCENT 4
COPYRIGHT "GNU General Public License"
DEFAULT_CHAR 319
_XMBDFED_INFO "Edited with xmbdfed 4.5."
ENDPROPERTIES
CHARS 249
STARTCHAR C257
ENCODING 257
SWIDTH 480 0
DWIDTH 12 0
BBX 13 24 3 -2
BITMAP
8000
8000
7FC0
0020
0010
0010
FFF8
0C00
0400
1F80
3C40
3840
0040
00C0
0180
8700
7C00
1000
0800
0400
0200
0100
0100
0080
ENDCHAR
STARTCHAR C258
ENCODING 258
SWIDTH 600 0
DWIDTH 15 0
BBX 17 23 2 0
BITMAP
100000
100000
100000
0FF800
000600
000100
000100
7FFF80
100000
080000
1E0000
390400
310C00
013C00
01E800
039800
071000
1C1000
F03000
402000
002000
002000
002000
ENDCHAR
STARTCHAR C259
ENCODING 259
SWIDTH 600 0
DWIDTH 15 0
BBX 16 21 3 1
BITMAP
8000
8000
7FF0
000C
0002
0002
FFFF
0080
0100
4100
4100
4110
4228
42C8
4108
4008
4008
2010
2020
10C0
0F00
ENDCHAR
STARTCHAR C260
ENCODING 260
SWIDTH 640 0
DWIDTH 16 0
BBX 17 22 3 1
BITMAP
200000
200000
200000
1FF800
000600
000100
000100
FFFF80
004000
004000
508000
508000
508400
509C00
516400
508400
500400
500800
280800
281000
146000
0F8000
ENDCHAR
STARTCHAR C261
ENCODING 261
SWIDTH 720 0
DWIDTH 18 0
BBX 15 16 5 0
BITMAP
6000
E342
CCC2
71C4
0644
1884
2084
C088
8088
6108
1188
0950
0530
0610
0600
0200
ENDCHAR
STARTCHAR C262
ENCODING 262
SWIDTH 640 0
DWIDTH 16 0
BBX 15 16 3 0
BITMAP
003C
00E2
0182
0306
0204
0784
4784
478C
8308
8008
8008
8018
7FD0
0030
0030
0020
ENDCHAR
STARTCHAR C263
ENCODING 263
SWIDTH 760 0
DWIDTH 19 0
BBX 19 23 3 0
BITMAP
006000
008000
008000
008000
00E000
003FC0
000060
003C20
00E220
018220
030620
020440
078580
478600
478C00
830800
800800
800800
801800
7FD000
003000
003000
002000
ENDCHAR
STARTCHAR C264
ENCODING 264
SWIDTH 560 0
DWIDTH 14 0
BBX 12 15 4 1
BITMAP
03E0
0E10
9810
9C30
9C20
99E0
83C0
8380
8340
8040
8040
40C0
4180
2300
1E00
ENDCHAR
STARTCHAR C270
ENCODING 270
SWIDTH 280 0
DWIDTH 7 0
BBX 10 16 1 0
BITMAP
3FC0
0100
0200
0200
0400
0400
0400
0800
0800
0800
0800
1000
1000
1000
2000
C000
ENDCHAR
STARTCHAR C271
ENCODING 271
SWIDTH 0 0
DWIDTH 0 0
BBX 13 5 -14 -2
BITMAP
8000
8008
8010
7FF0
0010
ENDCHAR
STARTCHAR C272
ENCODING 272
SWIDTH 600 0
DWIDTH 15 0
BBX 16 18 3 -2
BITMAP
FFFF
0608
0608
0E08
0D08
5918
71F0
0710
0F10
0E10
0030
10E0
0F80
0600
0100
0080
0040
0020
ENDCHAR
STARTCHAR C273
ENCODING 273
SWIDTH 640 0
DWIDTH 16 0
BBX 17 16 3 0
BITMAP
FFFF80
010200
030200
028200
068200
4C4600
383C00
000800
000800
000800
3F8800
785000
783000
703000
003000
002000
ENDCHAR
STARTCHAR C274
ENCODING 274
SWIDTH 1160 0
DWIDTH 29 0
BBX 30 16 3 0
BITMAP
FFF83E1C
0304C110
03050090
070783E0
0C8C4660
38785C20
00007020
0000E040
00018040
00000040
00000040
00000080
00000080
00000080
00000080
00000100
ENDCHAR
STARTCHAR C275
ENCODING 275
SWIDTH 1160 0
DWIDTH 29 0
BBX 30 16 3 0
BITMAP
FFF83E1C
0304C110
03050090
070783E0
0C8C4660
38785C20
00007020
0000E040
00018040
0000F740
000108C0
00020880
00038080
00038080
00030080
00000100
ENDCHAR
STARTCHAR C276
ENCODING 276
SWIDTH 1000 0
DWIDTH 25 0
BBX 26 16 3 0
BITMAP
FFFFFFC0
02080000
02080000
07081800
05081400
4D1C1200
38F22200
00062200
000C2C00
00182C00
00304C00
00304000
000C4000
00024000
00018000
00008000
ENDCHAR
STARTCHAR C277
ENCODING 277
SWIDTH 640 0
DWIDTH 16 0
BBX 17 16 3 0
BITMAP
FFFF80
010200
030200
028200
068200
4C4600
383C00
001800
00E800
030800
1C0800
031000
009000
005000
003000
002000
ENDCHAR
STARTCHAR C278
ENCODING 278
SWIDTH 760 0
DWIDTH 19 0
BBX 20 16 3 0
BITMAP
FFFFF0
010440
030240
028280
068280
4C4680
383C80
001100
001100
007100
00F900
00F600
00E600
000600
000600
000400
ENDCHAR
STARTCHAR C279
ENCODING 279
SWIDTH 640 0
DWIDTH 16 0
BBX 17 16 3 0
BITMAP
FFFF80
010200
030200
028200
068200
4C4600
383C00
000800
000800
1EE800
211800
411000
701000
701000
601000
002000
ENDCHAR
STARTCHAR C280
ENCODING 280
SWIDTH 480 0
DWIDTH 12 0
BBX 14 18 2 -2
BITMAP
7FFC
0400
07C0
0E20
1C20
0020
0060
21C0
1F00
0C00
0200
0100
7D80
C340
E100
E100
0200
0200
ENDCHAR
STARTCHAR C281
ENCODING 281
SWIDTH 760 0
DWIDTH 19 0
BBX 20 16 3 0
BITMAP
FFFFF0
000800
001000
007100
019380
061780
182680
202080
402100
303E00
084000
044000
024000
394000
398000
008000
ENDCHAR
STARTCHAR C282
ENCODING 282
SWIDTH 680 0
DWIDTH 17 0
BBX 18 16 3 0
BITMAP
FFFFC0
001000
001000
007000
01AC00
063200
182200
202400
404400
304400
084400
044800
028800
398800
398800
008000
ENDCHAR
STARTCHAR C283
ENCODING 283
SWIDTH 560 0
DWIDTH 14 0
BBX 15 18 3 -2
BITMAP
FFFE
0000
1E20
3160
39D0
7990
7010
0030
0060
01C0
7F00
2000
1800
0600
0100
0080
0040
0020
ENDCHAR
STARTCHAR C284
ENCODING 284
SWIDTH 680 0
DWIDTH 17 0
BBX 18 18 3 -2
BITMAP
FFFFC0
040000
040000
1FC000
3C2C00
383200
002200
006400
00C400
838400
7E0400
100800
080800
040800
020800
011000
008000
004000
ENDCHAR
STARTCHAR C285
ENCODING 285
SWIDTH 680 0
DWIDTH 17 0
BBX 13 15 4 1
BITMAP
0F80
1858
9038
BC38
8208
8208
8678
9CF0
80F0
80E8
4008
4008
2018
1070
0FC0
ENDCHAR
STARTCHAR C286
ENCODING 286
SWIDTH 720 0
DWIDTH 18 0
BBX 14 15 4 1
BITMAP
79C8
072C
061C
CF1C
9F84
BF84
BBBC
8078
8078
8074
4004
400C
2018
1870
07C0
ENDCHAR
STARTCHAR C287
ENCODING 287
SWIDTH 640 0
DWIDTH 16 0
BBX 17 16 3 0
BITMAP
FFFF80
080000
080000
1F8000
3C7800
384400
004C00
00DC00
039800
7E0000
300000
080000
040000
020000
010000
010000
ENDCHAR
STARTCHAR C288
ENCODING 288
SWIDTH 400 0
DWIDTH 10 0
BBX 0 0 0 0
BITMAP
ENDCHAR
STARTCHAR C289
ENCODING 289
SWIDTH 600 0
DWIDTH 15 0
BBX 7 20 9 -3
BITMAP
06
06
0E
0C
0C
0C
1C
18
18
18
30
30
30
20
00
00
00
70
F0
E0
ENDCHAR
STARTCHAR C290
ENCODING 290
SWIDTH 440 0
DWIDTH 11 0
BBX 9 9 5 12
BITMAP
3B80
7F80
7F80
7F80
1080
1100
2200
4200
8400
ENDCHAR
STARTCHAR C291
ENCODING 291
SWIDTH 560 0
DWIDTH 14 0
BBX 13 19 2 -4
BITMAP
0088
0090
0110
0120
0220
0240
0440
7FF8
0480
0880
FFF0
1100
1200
2200
2400
4400
4800
4800
8800
ENDCHAR
STARTCHAR C292
ENCODING 292
SWIDTH 640 0
DWIDTH 16 0
BBX 16 22 1 -2
BITMAP
0008
0008
0010
0010
0020
0020
0040
0080
0080
0100
0100
023F
0200
0400
0800
0800
1000
1000
2000
2000
4000
8000
ENDCHAR
STARTCHAR C293
ENCODING 293
SWIDTH 680 0
DWIDTH 17 0
BBX 17 23 2 -2
BITMAP
030000
048180
08FE80
088100
088200
108400
110800
110800
111000
122000
0C4000
004000
008C00
011200
022200
044200
044200
088200
108400
208400
208800
409000
806000
ENDCHAR
STARTCHAR C294
ENCODING 294
SWIDTH 480 0
DWIDTH 12 0
BBX 12 18 4 -2
BITMAP
3E70
7940
7140
0340
0680
7C80
2080
1880
0500
0300
0300
0F00
3200
C200
3200
0A00
0400
0400
ENDCHAR
STARTCHAR C295
ENCODING 295
SWIDTH 280 0
DWIDTH 7 0
BBX 4 9 6 12
BITMAP
70
F0
F0
F0
10
20
20
40
80
ENDCHAR
STARTCHAR C296
ENCODING 296
SWIDTH 280 0
DWIDTH 7 0
BBX 9 25 2 -5
BITMAP
0080
0100
0300
0600
0400
0C00
1800
1800
3000
3000
7000
6000
6000
E000
C000
C000
C000
C000
C000
C000
C000
4000
6000
2000
2000
ENDCHAR
STARTCHAR C297
ENCODING 297
SWIDTH 280 0
DWIDTH 7 0
BBX 9 25 -1 -5
BITMAP
0300
0100
0100
0180
0180
0180
0180
0180
0180
0180
0180
0380
0300
0300
0300
0600
0600
0600
0C00
0C00
1800
1000
2000
6000
C000
ENDCHAR
STARTCHAR C298
ENCODING 298
SWIDTH 480 0
DWIDTH 12 0
BBX 10 12 5 8
BITMAP
0400
0400
4440
2580
1A00
0C00
1C00
6A00
9100
1000
1000
1000
ENDCHAR
STARTCHAR C299
ENCODING 299
SWIDTH 680 0
DWIDTH 17 0
BBX 15 15 3 0
BITMAP
0040
0080
0080
0080
0080
0100
0100
FFFE
0100
0200
0200
0200
0200
0400
0400
ENDCHAR
STARTCHAR C300
ENCODING 300
SWIDTH 360 0
DWIDTH 9 0
BBX 5 9 3 -5
BITMAP
38
78
78
78
10
10
20
40
80
ENDCHAR
STARTCHAR C301
ENCODING 301
SWIDTH 360 0
DWIDTH 9 0
BBX 9 2 2 6
BITMAP
FF80
FF00
ENDCHAR
STARTCHAR C302
ENCODING 302
SWIDTH 480 0
DWIDTH 12 0
BBX 5 15 9 0
BITMAP
08
18
10
10
10
30
20
20
20
60
40
40
40
C0
80
ENDCHAR
STARTCHAR C303
ENCODING 303
SWIDTH 280 0
DWIDTH 7 0
BBX 10 18 0 -3
BITMAP
0040
0040
0080
0100
0100
0200
0200
0400
0400
0800
0800
1000
1000
2000
2000
4000
4000
8000
ENDCHAR
STARTCHAR C304
ENCODING 304
SWIDTH 520 0
DWIDTH 13 0
BBX 11 11 3 2
BITMAP
0F80
3840
6020
4020
C020
8020
8060
8040
80C0
4380
3E00
ENDCHAR
STARTCHAR C305
ENCODING 305
SWIDTH 520 0
DWIDTH 13 0
BBX 9 14 4 1
BITMAP
6000
4000
4000
2000
1000
0C00
0200
0100
0080
0080
0080
7D80
FF00
FC00
ENDCHAR
STARTCHAR C306
ENCODING 306
SWIDTH 520 0
DWIDTH 13 0
BBX 9 16 4 -1
BITMAP
2000
3000
0C00
0300
0080
0080
0080
0300
FC00
C000
2000
1000
0800
0400
0200
0100
ENDCHAR
STARTCHAR C307
ENCODING 307
SWIDTH 520 0
DWIDTH 13 0
BBX 10 11 4 2
BITMAP
8000
8000
8700
8E80
8E40
8C40
8040
8040
8080
4100
3E00
ENDCHAR
STARTCHAR C308
ENCODING 308
SWIDTH 520 0
DWIDTH 13 0
BBX 12 16 2 0
BITMAP
03E0
0C30
1010
2010
2010
2020
30C0
1F00
0F80
30C0
4040
8040
8040
8080
C300
7C00
ENDCHAR
STARTCHAR C309
ENCODING 309
SWIDTH 520 0
DWIDTH 13 0
BBX 13 15 2 0
BITMAP
0380
0680
0C80
1878
3038
6060
40C0
C180
8100
8300
8200
8200
4200
3200
0F00
ENDCHAR
STARTCHAR C310
ENCODING 310
SWIDTH 520 0
DWIDTH 13 0
BBX 11 13 3 1
BITMAP
0600
4200
4200
8200
8460
85A0
8620
8020
8040
8040
4080
4300
3C00
ENDCHAR
STARTCHAR C311
ENCODING 311
SWIDTH 520 0
DWIDTH 13 0
BBX 9 16 4 0
BITMAP
0F00
3880
6080
C080
8080
8080
7F80
0100
0100
0100
0300
0200
0200
0200
0200
0200
ENDCHAR
STARTCHAR C312
ENCODING 312
SWIDTH 520 0
DWIDTH 13 0
BBX 12 15 2 1
BITMAP
1000
1000
1000
1000
2000
2000
2830
37C0
4080
4100
4100
8200
8400
9800
E000
ENDCHAR
STARTCHAR C313
ENCODING 313
SWIDTH 520 0
DWIDTH 13 0
BBX 11 15 2 0
BITMAP
1000
1000
1800
0C00
0600
0380
00C0
0060
0020
3C20
4620
8220
E240
E240
C380
ENDCHAR
STARTCHAR C314
ENCODING 314
SWIDTH 400 0
DWIDTH 10 0
BBX 6 13 5 1
BITMAP
1C
3C
3C
38
00
00
00
00
00
70
F0
F0
E0
ENDCHAR
STARTCHAR C315
ENCODING 315
SWIDTH 360 0
DWIDTH 9 0
BBX 6 14 3 -5
BITMAP
1C
3C
3C
38
00
38
78
78
78
10
10
20
40
80
ENDCHAR
STARTCHAR C316
ENCODING 316
SWIDTH 760 0
DWIDTH 19 0
BBX 11 16 10 0
BITMAP
1000
1060
1040
1040
3040
20C0
2080
2080
6080
4180
4100
4100
C100
8300
8200
8200
ENDCHAR
STARTCHAR C317
ENCODING 317
SWIDTH 680 0
DWIDTH 17 0
BBX 16 6 2 4
BITMAP
3FFF
0000
0000
0000
0000
FFFE
ENDCHAR
STARTCHAR C318
ENCODING 318
SWIDTH 480 0
DWIDTH 12 0
BBX 13 18 3 -2
BITMAP
FFF8
0800
0F80
1C40
3840
0040
00C0
4380
3E00
1800
0400
0200
0300
1E80
6200
1200
0A00
0400
ENDCHAR
STARTCHAR C319
ENCODING 319
SWIDTH 800 0
DWIDTH 20 0
BBX 10 19 12 -2
BITMAP
0F00
3080
7040
7040
6040
0080
0100
0200
0400
0800
1000
1000
1000
0000
0000
7000
F000
F000
E000
ENDCHAR
STARTCHAR C320
ENCODING 320
SWIDTH 640 0
DWIDTH 16 0
BBX 17 18 3 -2
BITMAP
FFFF80
008000
008000
008000
7D0000
E30600
C33C00
03C400
030800
000800
001800
007000
019000
031000
009000
006000
002000
002000
ENDCHAR
STARTCHAR C321
ENCODING 321
SWIDTH 280 0
DWIDTH 7 0
BBX 8 16 3 0
BITMAP
CF
78
30
10
10
30
20
20
20
60
40
40
40
C0
80
80
ENDCHAR
STARTCHAR C322
ENCODING 322
SWIDTH 520 0
DWIDTH 13 0
BBX 8 16 4 0
BITMAP
0E
11
31
51
8E
80
80
80
40
20
18
04
02
01
01
01
ENDCHAR
STARTCHAR C323
ENCODING 323
SWIDTH 560 0
DWIDTH 14 0
BBX 15 18 3 -2
BITMAP
FFFE
2000
2000
3000
2FC0
6320
4620
5C20
7060
00C0
0780
FC00
0C00
0200
0100
0080
0040
0020
ENDCHAR
STARTCHAR C324
ENCODING 324
SWIDTH 600 0
DWIDTH 15 0
BBX 16 15 3 1
BITMAP
FFFF
0080
0100
4100
4100
4110
4228
42C8
4108
4008
4008
2010
2020
10C0
0F00
ENDCHAR
STARTCHAR C325
ENCODING 325
SWIDTH 320 0
DWIDTH 8 0
BBX 10 23 2 -1
BITMAP
8000
8000
7E00
0180
0040
0040
7FC0
0180
0200
0400
0800
1000
1000
2000
2000
4000
4000
4000
4000
4000
4E00
3E00
0C00
ENDCHAR
STARTCHAR C326
ENCODING 326
SWIDTH 560 0
DWIDTH 14 0
BBX 15 16 3 0
BITMAP
FFFE
6008
1808
0410
0210
0710
0C90
3860
6020
6020
1820
0440
0240
0140
00C0
0080
ENDCHAR
STARTCHAR C327
ENCODING 327
SWIDTH 560 0
DWIDTH 14 0
BBX 15 16 3 0
BITMAP
FFFE
3008
6008
4010
4010
4310
3E10
0C20
3820
6020
1820
0440
0240
0140
00C0
0080
ENDCHAR
STARTCHAR C328
ENCODING 328
SWIDTH 360 0
DWIDTH 9 0
BBX 8 14 3 2
BITMAP
0E
11
21
21
22
1C
00
00
00
30
48
88
90
60
ENDCHAR
STARTCHAR C329
ENCODING 329
SWIDTH 240 0
DWIDTH 6 0
BBX 16 23 -6 0
BITMAP
3FC0
4030
8008
8004
8004
7F04
0084
00BF
0004
0008
0008
0008
0008
0010
0010
0010
0010
0020
0020
0020
0020
0040
0040
ENDCHAR
STARTCHAR C330
ENCODING 330
SWIDTH 680 0
DWIDTH 17 0
BBX 18 16 3 0
BITMAP
FFF1C0
001100
001100
00E200
032200
0C2200
102200
204400
604400
104400
086400
04A800
029800
028800
018000
010000
ENDCHAR
STARTCHAR C331
ENCODING 331
SWIDTH 600 0
DWIDTH 15 0
BBX 15 16 4 0
BITMAP
010E
0788
6C48
F858
E050
00D0
0390
0F30
7820
1820
0420
0260
0140
0140
00C0
00C0
ENDCHAR
STARTCHAR C332
ENCODING 332
SWIDTH 760 0
DWIDTH 19 0
BBX 20 16 3 0
BITMAP
FFFFF0
100400
100400
3C0400
730F00
71F880
610880
010900
031100
0E1100
1F9200
1C5200
002200
002200
002200
002000
ENDCHAR
STARTCHAR C333
ENCODING 333
SWIDTH 400 0
DWIDTH 10 0
BBX 7 15 4 1
BITMAP
0C
12
22
22
24
18
00
40
C0
60
30
10
18
08
08
ENDCHAR
STARTCHAR C334
ENCODING 334
SWIDTH 520 0
DWIDTH 13 0
BBX 13 16 4 0
BITMAP
1E38
3120
60A0
C0E0
8040
9840
B840
70C0
0080
0080
0080
0180
0100
0100
0100
0300
ENDCHAR
STARTCHAR C335
ENCODING 335
SWIDTH 240 0
DWIDTH 6 0
BBX 16 22 -6 0
BITMAP
8000
8000
7FE0
001C
0002
0002
003F
0004
0008
0008
0008
0008
0010
0010
0010
0010
0020
0020
0020
0020
0040
0040
ENDCHAR
STARTCHAR C336
ENCODING 336
SWIDTH 800 0
DWIDTH 20 0
BBX 18 16 4 0
BITMAP
1E2000
212380
612C40
617040
616040
024380
0C4700
30C680
E0C080
10C080
08A100
059E00
050000
030000
030000
030000
ENDCHAR
STARTCHAR C337
ENCODING 337
SWIDTH 880 0
DWIDTH 22 0
BBX 20 16 3 0
BITMAP
003800
00E400
018400
0305E0
020E30
078C10
478810
4788E0
8318C0
8018E0
801820
801820
7F9460
0073C0
002000
002000
ENDCHAR
STARTCHAR C338
ENCODING 338
SWIDTH 600 0
DWIDTH 15 0
BBX 16 19 3 -3
BITMAP
FFFF
0080
0100
4100
4100
4110
4228
42C8
4108
4008
4008
2010
2020
10C0
0F00
0000
0000
0E00
0E00
ENDCHAR
STARTCHAR C339
ENCODING 339
SWIDTH 560 0
DWIDTH 14 0
BBX 15 16 3 0
BITMAP
C00E
23C8
1628
1C38
3E10
7E10
FE10
EE30
0020
0020
0020
0060
0040
0040
0040
00C0
ENDCHAR
STARTCHAR C340
ENCODING 340
SWIDTH 480 0
DWIDTH 12 0
BBX 13 21 3 1
BITMAP
8000
8000
7FC0
0020
0010
0010
FFF8
3000
2000
2000
2000
6000
40C0
41C0
4180
C180
8300
8600
8C00
B800
6000
ENDCHAR
STARTCHAR C341
ENCODING 341
SWIDTH 0 0
DWIDTH 0 0
BBX 10 8 -8 -7
BITMAP
1C00
6000
8000
8000
7C00
0200
0180
0040
ENDCHAR
STARTCHAR C342
ENCODING 342
SWIDTH 480 0
DWIDTH 12 0
BBX 14 19 2 -3
BITMAP
7FFC
1800
1000
1000
1000
3000
2060
20E0
20C0
60C0
4180
4300
4600
5C00
3000
0000
0000
7000
E000
ENDCHAR
STARTCHAR C343
ENCODING 343
SWIDTH 0 0
DWIDTH 0 0
BBX 5 6 -6 -5
BITMAP
10
30
E0
80
60
18
ENDCHAR
STARTCHAR C344
ENCODING 344
SWIDTH 480 0
DWIDTH 12 0
BBX 13 15 3 1
BITMAP
FFF8
3000
2000
2000
2000
6000
40C0
41C0
4180
C180
8300
8600
8C00
B800
6000
ENDCHAR
STARTCHAR C345
ENCODING 345
SWIDTH 560 0
DWIDTH 14 0
BBX 15 16 3 0
BITMAP
FFFE
6008
1808
0410
0210
0610
0C10
3820
6020
6020
1820
0440
0240
0140
00C0
0080
ENDCHAR
STARTCHAR C346
ENCODING 346
SWIDTH 480 0
DWIDTH 12 0
BBX 13 23 3 1
BITMAP
0300
0200
0200
0200
0200
0200
0100
0100
FFF8
0180
0180
0380
0240
0640
0440
0C40
1840
30C0
6080
C180
8300
8600
7C00
ENDCHAR
STARTCHAR C347
ENCODING 347
SWIDTH 200 0
DWIDTH 5 0
BBX 11 26 0 -5
BITMAP
03E0
03C0
0300
0700
0600
0600
0600
0E00
0C00
0C00
0C00
1C00
1800
1800
1800
3800
3000
3000
3000
7000
6000
6000
6000
E000
F800
F000
ENDCHAR
STARTCHAR C348
ENCODING 348
SWIDTH 440 0
DWIDTH 11 0
BBX 9 9 5 11
BITMAP
1080
2100
4200
4400
8800
FF00
FF00
FF00
EE00
ENDCHAR
STARTCHAR C349
ENCODING 349
SWIDTH 200 0
DWIDTH 5 0
BBX 11 26 -2 -5
BITMAP
01E0
03E0
03C0
00C0
00C0
00C0
0180
0180
0180
0380
0300
0300
0300
0700
0600
0600
0600
0E00
0C00
0C00
0C00
1C00
1800
1800
7800
F800
ENDCHAR
STARTCHAR C350
ENCODING 350
SWIDTH 0 0
DWIDTH 0 0
BBX 12 7 0 16
BITMAP
0030
0040
0180
0600
0C00
3000
E000
ENDCHAR
STARTCHAR C351
ENCODING 351
SWIDTH 0 0
DWIDTH 0 0
BBX 4 4 -3 -6
BITMAP
80
40
20
10
ENDCHAR
STARTCHAR C352
ENCODING 352
SWIDTH 280 0
DWIDTH 7 0
BBX 4 9 5 11
BITMAP
10
20
40
40
80
F0
F0
F0
E0
ENDCHAR
STARTCHAR C353
ENCODING 353
SWIDTH 800 0
DWIDTH 20 0
BBX 21 16 3 0
BITMAP
FFFFF8
020020
010020
43F040
478840
278440
270440
200480
200480
100880
100880
081500
042500
03C300
000300
000200
ENDCHAR
STARTCHAR C354
ENCODING 354
SWIDTH 520 0
DWIDTH 13 0
BBX 14 16 3 0
BITMAP
FFFC
0010
0010
00E0
0320
0C20
1020
6040
C040
3040
0840
0480
0280
0280
0180
0100
ENDCHAR
STARTCHAR C355
ENCODING 355
SWIDTH 480 0
DWIDTH 12 0
BBX 13 15 3 1
BITMAP
FFF8
3000
3000
3000
2800
6600
4180
40C0
4080
C180
8300
8600
8C00
B800
6000
ENDCHAR
STARTCHAR C356
ENCODING 356
SWIDTH 480 0
DWIDTH 12 0
BBX 13 16 3 0
BITMAP
FFF8
2000
2000
2000
4060
41C0
4680
5880
A100
C100
0100
0200
0200
0200
0200
0400
ENDCHAR
STARTCHAR C357
ENCODING 357
SWIDTH 320 0
DWIDTH 8 0
BBX 9 17 3 -1
BITMAP
FF80
0300
0400
0800
1000
2000
2000
4000
4000
8000
8000
8000
8000
8000
9C00
7C00
1800
ENDCHAR
STARTCHAR C358
ENCODING 358
SWIDTH 680 0
DWIDTH 17 0
BBX 18 16 3 0
BITMAP
FFFFC0
600000
180000
041800
022400
062200
0C2200
182E00
705C00
605800
184000
044000
028000
018000
018000
018000
ENDCHAR
STARTCHAR C359
ENCODING 359
SWIDTH 560 0
DWIDTH 14 0
BBX 14 16 4 0
BITMAP
001C
1F10
7090
C070
F860
C420
0420
0C60
1840
3040
2040
00C0
0080
0080
0080
0180
ENDCHAR
STARTCHAR C360
ENCODING 360
SWIDTH 480 0
DWIDTH 12 0
BBX 13 18 3 -2
BITMAP
FFF8
0C00
0400
1F80
3C40
3840
0040
00C0
0180
8700
7C00
1000
0800
0400
0200
0100
0100
0080
ENDCHAR
STARTCHAR C361
ENCODING 361
SWIDTH 280 0
DWIDTH 7 0
BBX 18 23 3 0
BITMAP
01F800
070600
0C0100
180080
100040
100040
100000
FF0000
080000
080000
100000
100000
100000
100000
200000
200000
200000
200000
400000
400000
400000
400000
800000
ENDCHAR
STARTCHAR C362
ENCODING 362
SWIDTH 680 0
DWIDTH 17 0
BBX 18 16 3 0
BITMAP
FFFFC0
010000
030000
450000
88FE00
900200
904400
91C400
8E2400
802800
402800
404800
208800
1F0800
000800
000800
ENDCHAR
STARTCHAR C363
ENCODING 363
SWIDTH 680 0
DWIDTH 17 0
BBX 18 16 3 0
BITMAP
FFFFC0
001000
002000
00F800
032400
0C2200
104200
604200
404E00
305C00
089800
048000
028000
028000
010000
010000
ENDCHAR
STARTCHAR C364
ENCODING 364
SWIDTH 600 0
DWIDTH 15 0
BBX 16 16 3 0
BITMAP
FFFF
0004
0004
0008
3C68
4298
8118
8110
9810
B810
7010
0020
0020
0020
0020
0040
ENDCHAR
STARTCHAR C365
ENCODING 365
SWIDTH 560 0
DWIDTH 14 0
BBX 15 16 3 0
BITMAP
FFFE
3008
2008
2010
1010
1010
0810
0420
0420
1C20
3E20
3B40
30C0
00C0
0040
0080
ENDCHAR
STARTCHAR C366
ENCODING 366
SWIDTH 520 0
DWIDTH 13 0
BBX 14 16 3 0
BITMAP
FFFC
0010
0010
0020
0020
0020
0020
7C40
F240
F140
E140
0080
0080
0080
0080
0100
ENDCHAR
STARTCHAR C367
ENCODING 367
SWIDTH 680 0
DWIDTH 17 0
BBX 16 22 4 1
BITMAP
0080
0100
0100
0180
00F0
001E
0003
03F1
0609
8C09
9C1A
9C14
81F8
83F0
83C0
83A0
8020
8020
4060
40C0
2180
1F00
ENDCHAR
STARTCHAR C368
ENCODING 368
SWIDTH 600 0
DWIDTH 15 0
BBX 15 16 4 0
BITMAP
000E
0F08
3088
E0D8
11B0
1710
1C10
3830
2020
0020
0020
0060
0040
0040
0040
00C0
ENDCHAR
STARTCHAR C369
ENCODING 369
SWIDTH 600 0
DWIDTH 15 0
BBX 12 16 4 1
BITMAP
01E0
2310
2230
96E0
8F80
8400
8C00
8860
89E0
8F20
8020
8060
4040
40C0
2180
1F00
ENDCHAR
STARTCHAR C370
ENCODING 370
SWIDTH 520 0
DWIDTH 13 0
BBX 14 16 3 0
BITMAP
FFFC
0010
0010
00E0
0320
0C20
1020
6040
C040
3040
0840
0480
0280
0280
7180
7100
ENDCHAR
STARTCHAR C371
ENCODING 371
SWIDTH 600 0
DWIDTH 15 0
BBX 16 16 3 0
BITMAP
FFFF
3804
0404
0208
0208
0208
03C8
0330
0610
4C10
3810
0020
0020
0020
0020
0040
ENDCHAR
STARTCHAR C372
ENCODING 372
SWIDTH 600 0
DWIDTH 15 0
BBX 16 15 3 1
BITMAP
FFFF
0000
0000
4000
41E0
43D0
43C8
4388
4008
4008
4010
2010
2020
1040
0F80
ENDCHAR
STARTCHAR C373
ENCODING 373
SWIDTH 0 0
DWIDTH 0 0
BBX 9 7 -8 -7
BITMAP
7400
8C00
8C00
7200
0100
0100
0080
ENDCHAR
STARTCHAR C374
ENCODING 374
SWIDTH 640 0
DWIDTH 16 0
BBX 17 15 3 1
BITMAP
FFFF80
000000
000000
400000
438000
478800
479800
473400
43E400
400400
400400
200C00
201800
107000
0FC000
ENDCHAR
STARTCHAR C375
ENCODING 375
SWIDTH 0 0
DWIDTH 0 0
BBX 9 6 -2 17
BITMAP
0C00
8C80
8080
4100
4200
3C00
ENDCHAR
STARTCHAR C376
ENCODING 376
SWIDTH 520 0
DWIDTH 13 0
BBX 13 16 4 0
BITMAP
1C38
3C20
3820
20C0
1E40
0840
3040
4080
8080
6080
1080
0900
0500
0500
0300
0200
ENDCHAR
STARTCHAR C377
ENCODING 377
SWIDTH 560 0
DWIDTH 14 0
BBX 15 16 3 0
BITMAP
FFFE
6008
1808
0410
0210
0610
0C10
3820
6020
6020
1820
0440
0240
0140
38C0
3880
ENDCHAR
STARTCHAR C378
ENCODING 378
SWIDTH 560 0
DWIDTH 14 0
BBX 14 16 4 0
BITMAP
1E1C
2110
6110
6130
6120
0220
0C20
3060
E040
1840
0440
02C0
0180
0180
0080
0180
ENDCHAR
STARTCHAR C379
ENCODING 379
SWIDTH 600 0
DWIDTH 15 0
BBX 16 1 1 7
BITMAP
FFFF
ENDCHAR
STARTCHAR C380
ENCODING 380
SWIDTH 1080 0
DWIDTH 27 0
BBX 28 1 1 7
BITMAP
FFFFFFF0
ENDCHAR
STARTCHAR C381
ENCODING 381
SWIDTH 480 0
DWIDTH 12 0
BBX 14 18 2 -2
BITMAP
7FFC
0400
07C0
0E20
1C20
0020
0060
21C0
1F00
0C00
0200
0100
3B80
45C0
E480
E100
C100
0100
ENDCHAR
STARTCHAR C382
ENCODING 382
SWIDTH 640 0
DWIDTH 16 0
BBX 14 5 3 5
BITMAP
3C00
7E04
C30C
01F8
00E0
ENDCHAR
STARTCHAR C383
ENCODING 383
SWIDTH 960 0
DWIDTH 24 0
BBX 25 19 3 -3
BITMAP
FFFC0380
0081E200
01071200
010C0C00
011E0C00
01110400
02290400
02C90800
810B0800
400A0800
40080800
40101000
40201000
20C01000
1F001000
00002000
06000000
0E000000
0C000000
ENDCHAR
STARTCHAR C384
ENCODING 384
SWIDTH 680 0
DWIDTH 17 0
BBX 18 16 3 0
BITMAP
FFFFC0
001000
007800
01A400
062200
182600
606E00
21FC00
164800
184800
304800
089800
04B800
02B000
018000
010000
ENDCHAR
STARTCHAR C385
ENCODING 385
SWIDTH 560 0
DWIDTH 14 0
BBX 15 24 3 -1
BITMAP
2000
3000
0C00
03E0
0018
0004
0004
FFFE
0080
01C0
06A0
1910
7170
09E0
05C0
0200
0200
0EC0
19C0
31C0
2040
20C0
2180
1F00
ENDCHAR
STARTCHAR C386
ENCODING 386
SWIDTH 760 0
DWIDTH 19 0
BBX 20 15 3 1
BITMAP
FFFFF0
000000
03E000
0E1000
581700
5C3880
5C6380
59C780
43C780
43A700
402000
202000
206000
10C000
0F8000
ENDCHAR
STARTCHAR C387
ENCODING 387
SWIDTH 680 0
DWIDTH 17 0
BBX 18 16 3 0
BITMAP
FFFFC0
001000
007800
01A400
062200
182200
606200
21CE00
164E00
184000
304000
088000
048000
028000
018000
010000
ENDCHAR
STARTCHAR C388
ENCODING 388
SWIDTH 680 0
DWIDTH 17 0
BBX 18 16 3 0
BITMAP
FFFFC0
008100
01C100
0EA200
309200
611200
197200
057400
030400
020400
03C400
07A800
079800
071800
001800
001000
ENDCHAR
STARTCHAR C389
ENCODING 389
SWIDTH 840 0
DWIDTH 21 0
BBX 22 16 3 0
BITMAP
FFFFFC
000000
007800
01C400
0305C0
060E20
4788E0
4789E0
8789E0
8719C0
801000
801000
801000
603000
1FE000
002000
ENDCHAR
STARTCHAR C390
ENCODING 390
SWIDTH 640 0
DWIDTH 16 0
BBX 18 16 2 0
BITMAP
7FFFC0
000800
003800
00D400
031200
0C1200
032E00
00AE00
006000
006000
384000
474000
E4C000
E04000
C08000
008000
ENDCHAR
STARTCHAR C391
ENCODING 391
SWIDTH 800 0
DWIDTH 20 0
BBX 21 16 3 0
BITMAP
FFFFF8
104400
108800
3C8800
724E00
713980
611040
011040
0313C0
0E1780
1FA700
1C6000
006000
006000
004000
004000
ENDCHAR
STARTCHAR C392
ENCODING 392
SWIDTH 760 0
DWIDTH 19 0
BBX 20 18 3 -2
BITMAP
FFFFF0
108800
108800
3E8800
797E00
711100
011080
031380
0E2700
1F2600
1EA000
1C6000
1E4000
394000
78C000
708000
008000
008000
ENDCHAR
STARTCHAR C393
ENCODING 393
SWIDTH 840 0
DWIDTH 21 0
BBX 22 20 3 -4
BITMAP
FFFFFC
104810
108810
3E8820
797E20
711120
0110A0
0313C0
0E2740
1F2640
1EA040
1C6080
006080
01E080
03D880
03C500
038300
000300
000300
000200
ENDCHAR
STARTCHAR C394
ENCODING 394
SWIDTH 680 0
DWIDTH 17 0
BBX 18 16 3 0
BITMAP
FFFFC0
008100
01C100
06A200
189200
713200
097200
056400
030400
02F400
038C00
460800
3C0800
000800
000800
001000
ENDCHAR
STARTCHAR C395
ENCODING 395
SWIDTH 640 0
DWIDTH 16 0
BBX 15 16 5 0
BITMAP
1E7E
7140
C0C0
C0C0
A0C0
1080
1080
3080
20E0
0720
1920
3140
0940
0640
0240
0280
ENDCHAR
STARTCHAR C396
ENCODING 396
SWIDTH 560 0
DWIDTH 14 0
BBX 15 16 3 0
BITMAP
078E
1C48
3028
7830
6410
0410
0410
0C20
0820
0020
7E20
F140
F0C0
E0C0
00C0
0080
ENDCHAR
STARTCHAR C397
ENCODING 397
SWIDTH 560 0
DWIDTH 14 0
BBX 14 16 4 0
BITMAP
0F1C
3890
6050
F060
C820
0820
0820
1840
1040
01C0
0E40
1880
0480
0280
0180
0100
ENDCHAR
STARTCHAR C398
ENCODING 398
SWIDTH 680 0
DWIDTH 17 0
BBX 17 16 4 0
BITMAP
1F1F80
70A200
C06200
F06400
882400
084400
084400
184800
104800
004800
038800
07D000
07B000
073000
003000
002000
ENDCHAR
STARTCHAR C399
ENCODING 399
SWIDTH 600 0
DWIDTH 15 0
BBX 17 16 2 0
BITMAP
03E380
0E1200
180A00
1E0C00
110400
010400
010400
030800
020800
000800
3EE800
411000
B11000
F01000
601000
002000
ENDCHAR
STARTCHAR C400
ENCODING 400
SWIDTH 520 0
DWIDTH 13 0
BBX 14 18 3 -2
BITMAP
FFFC
1810
3010
2020
2320
1E20
1C20
3040
3040
0C40
0240
1980
3E80
7980
7180
0100
0100
0100
ENDCHAR
STARTCHAR C401
ENCODING 401
SWIDTH 600 0
DWIDTH 15 0
BBX 16 16 3 0
BITMAP
FFFF
0042
0022
3E1C
7100
6080
0080
01C0
06A0
1890
6110
1170
0960
0560
0200
0200
ENDCHAR
STARTCHAR C402
ENCODING 402
SWIDTH 1200 0
DWIDTH 30 0
BBX 29 17 5 0
BITMAP
03800000
467FFFF8
4CD04400
AB888400
9E3C8800
987A4E00
90F93980
93F10840
9E411040
804313C0
80CE1780
819F9700
471C6000
3C006000
00006000
00006000
00004000
ENDCHAR
STARTCHAR C403
ENCODING 403
SWIDTH 800 0
DWIDTH 20 0
BBX 21 17 3 0
BITMAP
00E000
F19038
0B3020
2A6020
27C040
242040
24F040
279040
201880
103880
10E880
0F9080
002100
003100
000900
000500
000200
ENDCHAR
STARTCHAR C404
ENCODING 404
SWIDTH 560 0
DWIDTH 14 0
BBX 16 16 2 0
BITMAP
7FFF
1084
0888
1E70
390C
3138
0178
01D0
0330
0620
1C20
F060
4040
0040
0040
0040
ENDCHAR
STARTCHAR C405
ENCODING 405
SWIDTH 880 0
DWIDTH 22 0
BBX 22 17 4 0
BITMAP
01C000
233FFC
267010
15F010
CF6020
8C4020
88C220
8BFE20
8E5C40
407040
40E040
419840
230480
1E0280
000180
000180
000100
ENDCHAR
STARTCHAR C406
ENCODING 406
SWIDTH 640 0
DWIDTH 16 0
BBX 16 17 4 0
BITMAP
0380
067F
2444
54C4
CF88
8888
89C8
4F48
4050
40D0
2190
1F10
0F20
1EA0
1E60
1C60
0040
ENDCHAR
STARTCHAR C407
ENCODING 407
SWIDTH 760 0
DWIDTH 19 0
BBX 20 16 3 0
BITMAP
FFFFF0
304000
304000
30C000
6CA000
439800
418600
438100
C70100
8D0300
B90600
E30C00
021800
027000
02C000
018000
ENDCHAR
STARTCHAR C408
ENCODING 408
SWIDTH 760 0
DWIDTH 19 0
BBX 20 16 3 0
BITMAP
FFFFF0
304000
304000
304000
6C7F00
43C880
419880
43B180
C6E300
8C0E00
B8F800
E04000
002000
001000
000800
000400
ENDCHAR
STARTCHAR C409
ENCODING 409
SWIDTH 720 0
DWIDTH 18 0
BBX 19 18 3 -2
BITMAP
FFFFE0
204000
20C000
30C000
2EBE00
219900
633100
47E300
4C0600
781C00
60F000
002000
001000
000800
007800
019000
005000
003000
ENDCHAR
STARTCHAR C410
ENCODING 410
SWIDTH 640 0
DWIDTH 16 0
BBX 18 16 2 0
BITMAP
7FFFC0
080000
080000
0F0000
188000
118000
130000
1F9800
1CE400
08CC00
4D9C00
8D9C00
814400
813800
7F0000
010000
ENDCHAR
STARTCHAR C411
ENCODING 411
SWIDTH 960 0
DWIDTH 24 0
BBX 25 16 3 0
BITMAP
FFFFFF80
02000000
06000000
49020000
50FE0000
510A0000
4E89D800
40902800
21911000
1E8E9000
00809000
0040A000
00212000
001E2000
00002000
00002000
ENDCHAR
STARTCHAR C412
ENCODING 412
SWIDTH 960 0
DWIDTH 24 0
BBX 25 19 3 -3
BITMAP
FFFFFF80
02000000
06000000
49020000
50FE0000
510A0000
4E898C00
40907800
21910800
1E8E9000
00809000
00409000
00211000
001E2000
0000E000
00032000
00042000
00032000
0000C000
ENDCHAR
STARTCHAR C413
ENCODING 413
SWIDTH 1200 0
DWIDTH 30 0
BBX 31 16 3 0
BITMAP
FFFFFF8E
00800088
03800088
04800390
04760D10
480A3110
4804C110
48C50120
472F0220
40288220
20284220
20302340
10501540
0F9014C0
00100CC0
00100C00
ENDCHAR
STARTCHAR C414
ENCODING 414
SWIDTH 760 0
DWIDTH 19 0
BBX 20 14 3 2
BITMAP
FFFFF0
018000
028000
048000
084700
504880
905080
90E700
8F2700
402100
403100
404E00
208000
1F0000
ENDCHAR
STARTCHAR C415
ENCODING 415
SWIDTH 720 0
DWIDTH 18 0
BBX 19 19 3 -3
BITMAP
FFFFE0
010000
030000
050000
088000
907F00
900200
918200
8E4400
804400
404400
404800
20B800
1FC800
011000
031000
009000
007000
001000
ENDCHAR
STARTCHAR C417
ENCODING 417
SWIDTH 600 0
DWIDTH 15 0
BBX 15 20 2 -3
BITMAP
001C
0F22
18C2
188E
198C
030C
0E84
3848
6030
4180
4740
3C40
00C0
0780
FC00
1800
0600
0180
0040
0020
ENDCHAR
STARTCHAR C418
ENCODING 418
SWIDTH 680 0
DWIDTH 17 0
BBX 16 17 3 0
BITMAP
000E
0E31
1141
3987
390E
330E
0482
0844
903C
9008
8F88
8050
4050
2090
1F20
0020
0020
ENDCHAR
STARTCHAR C419
ENCODING 419
SWIDTH 600 0
DWIDTH 15 0
BBX 13 16 4 0
BITMAP
07B0
0CC8
1988
5930
9930
8110
83E0
7E00
0200
1E80
6480
C480
2500
1500
0B00
0900
ENDCHAR
STARTCHAR C420
ENCODING 420
SWIDTH 560 0
DWIDTH 14 0
BBX 16 25 2 -2
BITMAP
1000
1800
0600
01F0
000C
0002
0002
7FFF
0400
0400
0C00
0800
0830
0878
1870
1030
1020
3060
20C0
21C0
A740
9C40
4080
2100
1E00
ENDCHAR
STARTCHAR C421
ENCODING 421
SWIDTH 480 0
DWIDTH 12 0
BBX 13 26 3 -3
BITMAP
4000
4000
3000
0FC0
0020
0010
0010
FFF8
3000
2000
2000
2000
61C0
43C0
43C0
4080
C180
8300
8600
9C00
7200
0E00
3200
0A00
0400
0400
ENDCHAR
STARTCHAR C422
ENCODING 422
SWIDTH 880 0
DWIDTH 22 0
BBX 23 15 3 1
BITMAP
FFFFFE
020100
040200
040200
058200
468240
4084A0
408520
218620
1E8020
008020
008040
008080
004300
003C00
ENDCHAR
STARTCHAR C423
ENCODING 423
SWIDTH 760 0
DWIDTH 19 0
BBX 19 22 4 0
BITMAP
020000
018000
007E00
000180
000040
000040
1E7FE0
318000
618000
618000
E18000
C10000
010600
010E00
030E00
020600
020400
060C00
041800
043000
04E000
038000
ENDCHAR
STARTCHAR C424
ENCODING 424
SWIDTH 600 0
DWIDTH 15 0
BBX 11 23 4 1
BITMAP
00C0
0080
0080
0180
0100
0100
0100
1F00
3180
6180
7080
71C0
0140
0320
0220
0620
0C20
1860
7040
C0C0
8180
8700
7C00
ENDCHAR
STARTCHAR C425
ENCODING 425
SWIDTH 640 0
DWIDTH 16 0
BBX 13 15 4 1
BITMAP
1E10
3138
B8E8
B8C8
B018
8010
80F0
81E0
81E0
8190
8010
4010
4030
20E0
1F80
ENDCHAR
STARTCHAR C426
ENCODING 426
SWIDTH 520 0
DWIDTH 13 0
BBX 14 16 3 0
BITMAP
0F9C
1850
3030
3820
3820
3020
0020
0040
3E40
6140
C0C0
E080
E080
C080
0080
0100
ENDCHAR
STARTCHAR C427
ENCODING 427
SWIDTH 640 0
DWIDTH 16 0
BBX 15 16 5 0
BITMAP
3CFE
6288
C188
E190
E110
C110
0110
0120
0220
0E20
1F20
1EC0
1CC0
00C0
00C0
0080
ENDCHAR
STARTCHAR C428
ENCODING 428
SWIDTH 560 0
DWIDTH 14 0
BBX 15 15 3 1
BITMAP
FFFE
0000
01E0
0710
4C10
5C30
5C60
59C0
43C0
43A0
4020
2020
2060
11C0
0F00
ENDCHAR
STARTCHAR C429
ENCODING 429
SWIDTH 560 0
DWIDTH 14 0
BBX 15 18 3 -2
BITMAP
FFFE
0000
03E0
0E10
5C10
5C30
59E0
43C0
43A0
2020
2060
11C0
0F80
0780
1880
0480
0300
0100
ENDCHAR
STARTCHAR C430
ENCODING 430
SWIDTH 600 0
DWIDTH 15 0
BBX 14 16 5 0
BITMAP
301C
4A10
CD10
C930
C120
0220
0C20
3060
E040
1840
0440
02C0
0180
0180
0080
0180
ENDCHAR
STARTCHAR C431
ENCODING 431
SWIDTH 560 0
DWIDTH 14 0
BBX 15 16 3 0
BITMAP
FFFE
0000
41E0
23D0
23D0
2390
1010
1020
0840
07C0
3E40
7940
7980
7080
0080
0080
ENDCHAR
STARTCHAR C432
ENCODING 432
SWIDTH 600 0
DWIDTH 15 0
BBX 16 16 3 0
BITMAP
FFFF
0000
40F0
21E8
21E8
11C8
1008
0810
0420
03E0
01E0
0620
0E40
0140
00C0
00C0
ENDCHAR
STARTCHAR C433
ENCODING 433
SWIDTH 720 0
DWIDTH 18 0
BBX 19 16 3 0
BITMAP
FFFFE0
000080
40F080
21E900
21E900
11C900
100900
081200
042200
03C200
01E200
039400
038C00
030C00
000C00
000800
ENDCHAR
STARTCHAR C434
ENCODING 434
SWIDTH 640 0
DWIDTH 16 0
BBX 17 16 3 0
BITMAP
FFFF80
000000
007800
01C400
030400
060400
258C00
478800
878800
830800
801800
801000
801000
601000
1FF000
002000
ENDCHAR
STARTCHAR C435
ENCODING 435
SWIDTH 800 0
DWIDTH 20 0
BBX 21 16 3 0
BITMAP
FFFFF8
000000
007800
01C440
0304E0
060DE0
4789A0
478820
878840
871F80
801000
801000
803000
602000
1FE000
002000
ENDCHAR
STARTCHAR C436
ENCODING 436
SWIDTH 880 0
DWIDTH 22 0
BBX 23 16 3 0
BITMAP
FFC78E
201C48
203028
206030
207810
418410
468410
490C20
511820
A20020
C20020
020040
040040
040040
040040
040080
ENDCHAR
STARTCHAR C437
ENCODING 437
SWIDTH 840 0
DWIDTH 21 0
BBX 22 16 3 0
BITMAP
FFFFFC
203010
202010
206020
40C020
41C620
473E20
491840
913040
E26040
821840
040480
040280
040180
040180
040100
ENDCHAR
STARTCHAR C438
ENCODING 438
SWIDTH 560 0
DWIDTH 14 0
BBX 15 16 3 0
BITMAP
FFFE
2000
2000
4200
4E00
7230
4460
04A0
0940
0A40
0C40
0880
0080
0080
0080
0080
ENDCHAR
STARTCHAR C439
ENCODING 439
SWIDTH 600 0
DWIDTH 15 0
BBX 16 16 3 0
BITMAP
FFFF
2000
2000
2000
2080
4740
5840
60F0
4390
0C90
3090
0920
0520
0520
0320
0240
ENDCHAR
STARTCHAR C440
ENCODING 440
SWIDTH 520 0
DWIDTH 13 0
BBX 14 16 3 0
BITMAP
FFFC
2000
2000
2000
2040
43C0
4C20
7040
43C0
0C40
3840
0480
0280
0180
0180
0100
ENDCHAR
STARTCHAR C441
ENCODING 441
SWIDTH 600 0
DWIDTH 15 0
BBX 16 16 3 0
BITMAP
FFFF
1000
2000
2180
2700
3900
6200
4200
8E40
9EC0
9FA0
9F20
4020
4060
21C0
1F00
ENDCHAR
STARTCHAR C442
ENCODING 442
SWIDTH 600 0
DWIDTH 15 0
BBX 16 16 3 0
BITMAP
FFFF
1000
2000
2180
2700
3900
6200
4200
0E60
1ED0
9F90
9F30
8020
4020
3FE0
0060
ENDCHAR
STARTCHAR C443
ENCODING 443
SWIDTH 560 0
DWIDTH 14 0
BBX 15 16 3 0
BITMAP
FFFE
2008
2008
4010
4190
4690
5910
A120
C220
8220
0220
0E40
1D40
1CC0
18C0
0080
ENDCHAR
STARTCHAR C444
ENCODING 444
SWIDTH 480 0
DWIDTH 12 0
BBX 14 18 2 -2
BITMAP
071C
0F10
0E70
07A0
0620
0820
1820
0440
0240
0140
00C0
3C80
6280
E180
C180
0100
0100
0100
ENDCHAR
STARTCHAR C445
ENCODING 445
SWIDTH 920 0
DWIDTH 23 0
BBX 24 16 3 0
BITMAP
0E0FFF
1E1004
1C1004
107018
0F90E8
062308
182408
203810
E03010
184C10
044210
024120
0140A0
0180A0
008060
008040
ENDCHAR
STARTCHAR C446
ENCODING 446
SWIDTH 760 0
DWIDTH 19 0
BBX 20 22 3 0
BITMAP
010000
00C000
003F00
0000C0
000020
000020
FFFFF0
004000
004000
004000
3CC000
728000
718300
618700
018700
010300
010200
030600
020C00
021800
027000
01C000
ENDCHAR
STARTCHAR C447
ENCODING 447
SWIDTH 640 0
DWIDTH 16 0
BBX 17 15 3 1
BITMAP
FFFF80
008000
008000
7C8000
F38000
E11000
012800
01C800
810800
400800
400800
401000
202000
10C000
0F0000
ENDCHAR
STARTCHAR C448
ENCODING 448
SWIDTH 600 0
DWIDTH 15 0
BBX 16 16 3 0
BITMAP
FFFF
0004
0004
0004
0C0C
5E08
5918
40F0
41E0
43D0
2390
2010
2010
1020
0840
0780
ENDCHAR
STARTCHAR C449
ENCODING 449
SWIDTH 600 0
DWIDTH 15 0
BBX 16 18 3 -2
BITMAP
FFFF
0010
0010
3830
7C20
7A60
71C0
03E0
4E10
5C10
5DF0
5BE0
43C0
43A0
2020
2060
11C0
0F00
ENDCHAR
STARTCHAR C450
ENCODING 450
SWIDTH 600 0
DWIDTH 15 0
BBX 16 18 3 -2
BITMAP
FFFF
0004
0004
0E0C
1D08
5C98
5870
40E0
41F0
21D0
2010
1010
0820
07C0
01C0
0640
0140
0080
ENDCHAR
STARTCHAR C451
ENCODING 451
SWIDTH 600 0
DWIDTH 15 0
BBX 16 18 3 -2
BITMAP
FFFF
0004
0004
0E0C
1D08
1C98
19F0
0310
0610
4430
8F20
8F20
8020
8020
4060
3FC0
0040
0040
ENDCHAR
STARTCHAR C452
ENCODING 452
SWIDTH 600 0
DWIDTH 15 0
BBX 16 18 3 -2
BITMAP
FFFF
0010
0010
3830
7C20
7A60
71E0
0710
0F10
0E10
0030
10E0
0F80
0600
0100
0080
0040
0020
ENDCHAR
STARTCHAR C453
ENCODING 453
SWIDTH 680 0
DWIDTH 17 0
BBX 18 16 3 0
BITMAP
FFFFC0
004000
008000
008000
7C8100
F28600
F30A00
E13200
014400
018400
030400
000800
000800
000800
001000
001000
ENDCHAR
STARTCHAR C454
ENCODING 454
SWIDTH 600 0
DWIDTH 15 0
BBX 16 16 3 0
BITMAP
FFFF
0020
0020
1E20
3940
78C0
70C0
00F0
0390
0C90
1090
30A0
0920
0520
0320
0340
ENDCHAR
STARTCHAR C455
ENCODING 455
SWIDTH 520 0
DWIDTH 13 0
BBX 15 16 2 0
BITMAP
7FFE
0008
0008
0010
1F90
3850
3830
3020
0020
0020
7E20
F140
F0C0
E0C0
00C0
0080
ENDCHAR
STARTCHAR C456
ENCODING 456
SWIDTH 560 0
DWIDTH 14 0
BBX 15 16 3 0
BITMAP
FFFE
0008
0008
0010
7F10
F090
F050
E020
0020
00E0
0720
0C40
0240
0140
00C0
0080
ENDCHAR
STARTCHAR C457
ENCODING 457
SWIDTH 640 0
DWIDTH 16 0
BBX 17 16 3 0
BITMAP
FFFF80
002200
002200
3E2400
714400
70C400
60C400
00C800
008800
008800
038800
07D000
073000
003000
003000
002000
ENDCHAR
STARTCHAR C458
ENCODING 458
SWIDTH 680 0
DWIDTH 17 0
BBX 18 16 3 0
BITMAP
FFFFC0
0E0100
010100
008200
008200
3C8200
628200
62F400
038C00
430C00
4E0400
380800
000800
000800
000800
001000
ENDCHAR
STARTCHAR C459
ENCODING 459
SWIDTH 800 0
DWIDTH 20 0
BBX 20 23 4 0
BITMAP
020000
010000
00C000
003F00
0000C0
000020
000020
007FF0
1E4000
614000
C3C000
2E8000
388000
708300
018700
010700
010300
010200
030600
020C00
021800
027000
01C000
ENDCHAR
STARTCHAR C460
ENCODING 460
SWIDTH 640 0
DWIDTH 16 0
BBX 16 16 4 0
BITMAP
000F
0F88
7048
09F0
0B10
8E10
9810
B020
81E0
83E0
4390
4010
4010
2020
1040
0F80
ENDCHAR
STARTCHAR C461
ENCODING 461
SWIDTH 600 0
DWIDTH 15 0
BBX 14 16 5 0
BITMAP
1F1C
6090
C0D0
A3E0
1620
1C20
3020
6040
0040
0040
7C40
F280
F180
E180
0180
0100
ENDCHAR
STARTCHAR C462
ENCODING 462
SWIDTH 600 0
DWIDTH 15 0
BBX 17 17 2 -1
BITMAP
000380
03E200
1C1200
027C00
02C400
038400
060400
0C0800
000800
0F8800
304800
E0F000
13B000
161000
1C1000
302000
002000
ENDCHAR
STARTCHAR C463
ENCODING 463
SWIDTH 600 0
DWIDTH 15 0
BBX 16 16 3 0
BITMAP
07C7
1824
3034
28F8
0588
0708
0C08
1810
0010
3DD0
4230
8220
B020
F020
6020
0040
ENDCHAR
STARTCHAR C464
ENCODING 464
SWIDTH 680 0
DWIDTH 17 0
BBX 18 16 3 0
BITMAP
FFFFC0
0E0100
010100
018200
3C8200
668200
1E8200
30F400
218C00
430C00
4E0400
380800
000800
000800
000800
001000
ENDCHAR
STARTCHAR C465
ENCODING 465
SWIDTH 680 0
DWIDTH 17 0
BBX 19 17 2 -1
BITMAP
7FFFE0
0C0000
030000
008E00
018900
030880
061080
061100
011700
009600
006000
3DA000
426000
B26000
F04000
604000
004000
ENDCHAR
STARTCHAR C466
ENCODING 466
SWIDTH 680 0
DWIDTH 17 0
BBX 18 14 3 2
BITMAP
FFFFC0
010000
070000
1B0000
62FF00
120200
8A4400
85C400
862000
802000
802800
404000
308000
0F0000
ENDCHAR
STARTCHAR C467
ENCODING 467
SWIDTH 640 0
DWIDTH 16 0
BBX 17 16 3 0
BITMAP
FFFF80
008000
010000
070000
390200
610C00
121400
0A6400
068800
070800
060800
001000
001000
001000
002000
002000
ENDCHAR
STARTCHAR C468
ENCODING 468
SWIDTH 640 0
DWIDTH 16 0
BBX 17 16 3 0
BITMAP
FFFF80
001000
006000
03A000
1C2000
202000
40FC00
234400
1C4800
104800
308800
089000
049000
029000
011000
012000
ENDCHAR
STARTCHAR C469
ENCODING 469
SWIDTH 520 0
DWIDTH 13 0
BBX 14 16 3 0
BITMAP
FFFC
0010
0070
03A0
1C20
6020
40E0
2340
1C40
3040
6040
1880
0480
0280
0180
0100
ENDCHAR
STARTCHAR C470
ENCODING 470
SWIDTH 520 0
DWIDTH 13 0
BBX 15 16 2 0
BITMAP
7FFE
0008
0038
00D0
0710
1810
0610
0120
00A0
0060
3DA0
4240
F240
F040
E040
0080
ENDCHAR
STARTCHAR C471
ENCODING 471
SWIDTH 680 0
DWIDTH 17 0
BBX 18 16 3 0
BITMAP
FFFFC0
000000
000000
000000
000C00
031A00
473200
47E600
878400
800400
800400
800C00
400800
3FE800
001800
001800
ENDCHAR
STARTCHAR C472
ENCODING 472
SWIDTH 600 0
DWIDTH 15 0
BBX 17 17 2 -1
BITMAP
7FFF80
000000
118000
139800
133400
11E400
080400
080C00
043800
03F000
001000
3DD000
423000
B22000
F02000
602000
002000
ENDCHAR
STARTCHAR C473
ENCODING 473
SWIDTH 560 0
DWIDTH 14 0
BBX 15 16 3 0
BITMAP
FFFE
0808
0808
3808
7808
7C18
7230
01E0
0020
0020
7E20
F140
F0C0
E0C0
00C0
0080
ENDCHAR
STARTCHAR C474
ENCODING 474
SWIDTH 1000 0
DWIDTH 25 0
BBX 26 16 3 0
BITMAP
FFE1E1C0
08261100
08380900
383C3E00
7C626600
73C2C200
00038200
00060400
000C0400
00000400
00000400
00000800
00000800
00000800
00000800
00001000
ENDCHAR
STARTCHAR C475
ENCODING 475
SWIDTH 960 0
DWIDTH 24 0
BBX 25 16 3 0
BITMAP
FFFFFF80
08100000
08100000
38103000
7C302800
72706400
01C84400
00184400
00305800
0060D800
00C09800
00E08000
00188000
00058000
00030000
00010000
ENDCHAR
STARTCHAR C476
ENCODING 476
SWIDTH 560 0
DWIDTH 14 0
BBX 15 16 3 0
BITMAP
FFFE
0808
0808
3808
7808
7C18
7230
01E0
00E0
0720
1820
3040
0C40
0240
0140
0080
ENDCHAR
STARTCHAR C477
ENCODING 477
SWIDTH 640 0
DWIDTH 16 0
BBX 17 16 3 0
BITMAP
FFFF80
080800
040400
1C0400
3C0400
3A0C00
311800
06F000
4E6000
4ED000
4F9000
401000
403000
206000
11C000
0F0000
ENDCHAR
STARTCHAR C478
ENCODING 478
SWIDTH 600 0
DWIDTH 15 0
BBX 16 16 3 0
BITMAP
FFFF
0808
0808
3808
7C18
7A30
71E0
0060
4ED0
5F90
9F30
8020
8020
4020
3FE0
0040
ENDCHAR
STARTCHAR C479
ENCODING 479
SWIDTH 680 0
DWIDTH 17 0
BBX 18 16 3 0
BITMAP
FFFFC0
100900
080900
380A00
780A00
741A00
623200
01E400
002400
00E400
01F400
01F800
01D800
000800
001800
001000
ENDCHAR
STARTCHAR C480
ENCODING 480
SWIDTH 560 0
DWIDTH 14 0
BBX 15 16 3 0
BITMAP
FFFE
0808
0808
3808
7808
7C18
7230
01E0
0020
3DA0
4260
8240
E040
E040
C040
0080
ENDCHAR
STARTCHAR C481
ENCODING 481
SWIDTH 640 0
DWIDTH 16 0
BBX 17 16 3 0
BITMAP
FFFF80
001000
002000
3DA000
426000
826000
B04000
F0E000
635000
0C4800
308800
08B800
04B000
02B000
010000
010000
ENDCHAR
STARTCHAR C482
ENCODING 482
SWIDTH 600 0
DWIDTH 15 0
BBX 16 16 3 0
BITMAP
FFFF
0004
0004
1F68
2098
4098
7008
7010
6F90
3850
6050
7820
0420
0420
0C20
1840
ENDCHAR
STARTCHAR C483
ENCODING 483
SWIDTH 600 0
DWIDTH 15 0
BBX 16 18 3 -2
BITMAP
FFFF
0008
0008
1EE8
2110
7110
7010
6010
0FB0
5870
5C70
42F0
4FF0
49E0
41D0
2030
1060
0FC0
ENDCHAR
STARTCHAR C484
ENCODING 484
SWIDTH 800 0
DWIDTH 20 0
BBX 21 23 3 0
BITMAP
010000
008000
006000
001F80
000060
000010
000010
FFFFF8
002000
002000
1DE000
22C000
424000
704180
70C380
608380
008180
008100
018300
010600
010C00
013800
00E000
ENDCHAR
STARTCHAR C485
ENCODING 485
SWIDTH 720 0
DWIDTH 18 0
BBX 19 15 3 1
BITMAP
FFFFE0
002000
1DA000
226000
726000
704400
604A00
007200
104200
100200
100200
080400
080800
043000
03C000
ENDCHAR
STARTCHAR C486
ENCODING 486
SWIDTH 600 0
DWIDTH 15 0
BBX 16 16 3 0
BITMAP
FFFF
0004
0F04
10F8
2098
3808
3808
3010
0010
1F10
E090
23E0
2620
3C20
7020
4040
ENDCHAR
STARTCHAR C487
ENCODING 487
SWIDTH 600 0
DWIDTH 15 0
BBX 16 16 3 0
BITMAP
FFFF
0004
0004
0008
1EE8
2118
4118
7010
7010
60F0
0310
0E20
0120
00A0
0060
0040
ENDCHAR
STARTCHAR C488
ENCODING 488
SWIDTH 680 0
DWIDTH 17 0
BBX 18 16 3 0
BITMAP
FFFFC0
000100
001100
1ED200
213200
412200
702200
702400
602400
004400
01C400
03E800
03D800
039800
001800
001000
ENDCHAR
STARTCHAR C489
ENCODING 489
SWIDTH 600 0
DWIDTH 15 0
BBX 17 16 2 0
BITMAP
7FFF80
000200
000200
0FB400
104C00
204C00
380400
380800
300800
3EE800
411800
811000
B01000
F01000
601000
002000
ENDCHAR
STARTCHAR C490
ENCODING 490
SWIDTH 840 0
DWIDTH 21 0
BBX 22 16 3 0
BITMAP
E01FFC
3BD000
0E3000
1F3000
3FB800
7FA600
73A180
006040
004040
0040C0
004180
00C300
008600
009C00
00B000
006000
ENDCHAR
STARTCHAR C491
ENCODING 491
SWIDTH 880 0
DWIDTH 22 0
BBX 23 16 3 0
BITMAP
E00FFE
39C800
0F2800
1F9C00
3F9BE0
3F9910
3B9310
001630
001C60
0001C0
001F00
000800
000400
000200
000100
000080
ENDCHAR
STARTCHAR C492
ENCODING 492
SWIDTH 600 0
DWIDTH 15 0
BBX 16 16 3 0
BITMAP
E007
39E4
0F14
1F8C
3F88
3F88
3B88
0018
0010
0010
1F10
3CA0
3C60
3860
0060
0040
ENDCHAR
STARTCHAR C493
ENCODING 493
SWIDTH 720 0
DWIDTH 18 0
BBX 19 16 3 0
BITMAP
E00FE0
39C880
0F2880
1F9900
3F9900
3F9100
3B9100
001200
003200
002200
00E200
01E400
01F400
01CC00
000C00
000800
ENDCHAR
STARTCHAR C494
ENCODING 494
SWIDTH 600 0
DWIDTH 15 0
BBX 16 16 3 0
BITMAP
E007
39E4
0F14
1F8C
3F88
3F88
3B88
0018
0010
3DD0
4230
8220
B020
F020
6020
0040
ENDCHAR
STARTCHAR C495
ENCODING 495
SWIDTH 600 0
DWIDTH 15 0
BBX 16 16 3 0
BITMAP
E007
39E4
0F14
1F8C
3F88
3F88
3B88
0018
0010
00F0
0310
0E30
0120
00A0
0060
0040
ENDCHAR
STARTCHAR C496
ENCODING 496
SWIDTH 600 0
DWIDTH 15 0
BBX 16 16 3 0
BITMAP
FFFF
03C0
0C20
1420
2440
4280
43C0
3CA0
3090
4110
C170
3170
0900
0600
0200
0200
ENDCHAR
STARTCHAR C497
ENCODING 497
SWIDTH 800 0
DWIDTH 20 0
BBX 21 18 3 -2
BITMAP
FFFFF8
03C000
0C2000
142000
224000
42F000
438800
3F0800
021F00
279980
479380
431380
401300
403000
402000
3FE000
002000
002000
ENDCHAR
STARTCHAR C498
ENCODING 498
SWIDTH 520 0
DWIDTH 13 0
BBX 14 24 3 -1
BITMAP
2000
2000
1800
07E0
0010
0008
0008
FFFC
0380
0C40
1840
2480
4480
4300
4E00
3800
30C0
61C0
C180
8180
8180
8300
4600
3C00
ENDCHAR
STARTCHAR C499
ENCODING 499
SWIDTH 600 0
DWIDTH 15 0
BBX 16 23 3 1
BITMAP
0060
0040
0040
00C0
0080
0080
0080
0080
FFFF
03C0
0CC0
18E0
29A0
2590
4310
4F10
3610
0C30
3820
6060
40C0
4380
3E00
ENDCHAR
STARTCHAR C500
ENCODING 500
SWIDTH 800 0
DWIDTH 20 0
BBX 19 16 3 0
BITMAP
FFF000
3011C0
081620
041820
023020
0621C0
1D2380
30E340
606040
E06040
185080
044F00
028000
018000
018000
018000
ENDCHAR
STARTCHAR C501
ENCODING 501
SWIDTH 880 0
DWIDTH 22 0
BBX 23 16 3 0
BITMAP
FF078E
079848
18E068
24F0F0
450BB0
460E10
380C10
003820
002020
000020
000020
000040
000040
000040
000040
000080
ENDCHAR
STARTCHAR C502
ENCODING 502
SWIDTH 800 0
DWIDTH 20 0
BBX 21 16 3 0
BITMAP
FFFFF8
078000
188000
288300
450280
468240
4C4240
30C440
018580
030580
060580
060800
018800
004800
002800
001000
ENDCHAR
STARTCHAR C503
ENCODING 503
SWIDTH 600 0
DWIDTH 15 0
BBX 16 16 3 0
BITMAP
FFFF
03C4
0C24
1428
2448
4288
4308
3D10
0210
0F10
1E90
1E60
1C60
0060
0060
0040
ENDCHAR
STARTCHAR C504
ENCODING 504
SWIDTH 760 0
DWIDTH 19 0
BBX 20 16 3 0
BITMAP
FFFFF0
030200
030200
068200
0C4600
783C00
000800
003C00
00CA00
030900
061100
011700
009600
005600
002000
002000
ENDCHAR
STARTCHAR C505
ENCODING 505
SWIDTH 840 0
DWIDTH 21 0
BBX 22 18 3 -2
BITMAP
FFFFFC
010200
038200
028200
064600
3C3C00
007800
01C400
030780
238CC0
2389C0
4309C0
401980
401000
201000
1FD000
003000
002000
ENDCHAR
STARTCHAR C506
ENCODING 506
SWIDTH 760 0
DWIDTH 19 0
BBX 20 19 3 -3
BITMAP
FFFFF0
030200
030200
068200
0C4600
783C00
000400
003E00
00C900
030900
030B00
009700
005600
1EF000
213000
712000
702000
602000
002000
ENDCHAR
STARTCHAR C507
ENCODING 507
SWIDTH 800 0
DWIDTH 20 0
BBX 21 16 3 0
BITMAP
FFF038
061020
061020
061040
0D3040
78E040
001840
001480
03A480
03C480
001880
006100
00C100
003100
000D00
000200
ENDCHAR
STARTCHAR C508
ENCODING 508
SWIDTH 840 0
DWIDTH 21 0
BBX 22 22 3 0
BITMAP
008000
006000
001FC0
000030
000008
000008
FFFFFC
181800
041000
041000
021000
039000
0670C0
0C21C0
9821C0
7020C0
006080
006180
004300
004600
004C00
003800
ENDCHAR
STARTCHAR C509
ENCODING 509
SWIDTH 680 0
DWIDTH 17 0
BBX 18 16 3 0
BITMAP
FFFFC0
008100
018100
014100
034100
662300
5C7E00
40F800
20F400
20E400
200400
100400
100400
080800
041000
03E000
ENDCHAR
STARTCHAR C510
ENCODING 510
SWIDTH 600 0
DWIDTH 15 0
BBX 16 18 3 -2
BITMAP
FFFF
0608
0608
0E08
0D08
5918
70F0
03E0
4E10
5C10
5DF0
5BE0
43C0
43A0
2020
2060
11C0
0F00
ENDCHAR
STARTCHAR C511
ENCODING 511
SWIDTH 640 0
DWIDTH 16 0
BBX 17 18 3 -2
BITMAP
FFFF80
010400
038200
028200
064600
3C3C00
00F000
018800
030800
471800
871000
861000
801000
801000
403000
3FE000
002000
002000
ENDCHAR
ENDFONT
